:SAMPLES-PER-SECOND 30
:FRAME-RANGE 1-1086
:FULLY-SPECIFIED
:DEGREES
102
root  -4.63272 22.6894 -136.158 170.839 -0.987762 -153.905
RightUpLeg  -54.7754 5.01338 17.4406
RightLeg  102.239 -2.83145 12.2978
RightFoot  -39.1698 -0.359547 -0.368049
RightToes  1.21801e-010 1.2921e-014 -6.02303e-014
Spine  58.3206 -24.1555 -2.72752
Spine1  46.9612 8.18069 -56.1466
HEad  -68.8608 54.5008 -20.4478
LeftShoulder1  5.48785 40.352 25.337
LeftArm  -58.9162 -52.6624 -11.8087
LeftForeArm  -11.1627 -26.1696 -6.17617
LeftHand  -1.37505 -12.3972 9.35889
RightShoulder  0.847343 37.2779 -7.10583
RightArm  -4.42847 87.6501 127.565
RightForeArm  37.282 35.8664 5.89566
RightHand  -0.250189 2.61702 -3.83762
LeftUpLeg  -65.0902 2.10173 32.2226
LeftLeg  112.764 0.108262 -0.929536
LeftFoot  -37.7957 -0.884922 -4.73798
LeftToes  3.79492e-011 -8.60219e-011 1.56273e-011
103
root  -4.559 23.3255 -136.039 170.274 -0.415192 -156.219
RightUpLeg  -53.0301 6.36344 15.5852
RightLeg  100.372 -2.31969 11.9068
RightFoot  -38.2647 -0.22917 0.136786
RightToes  1.21801e-010 1.2921e-014 -6.02303e-014
Spine  59.288 -21.7359 -4.41046
Spine1  46.1294 7.31967 -53.2289
HEad  -68.8492 52.9823 -23.4836
LeftShoulder1  4.53644 37.3745 23.8432
LeftArm  -58.5644 -53.1679 -11.6645
LeftForeArm  -9.73261 -25.0652 -5.85122
LeftHand  -4.19487 -20.5208 18.9781
RightShoulder  1.526 36.8002 -5.18143
RightArm  -34.7227 86.2629 96.1719
RightForeArm  36.945 34.6343 5.60073
RightHand  -0.338405 3.79385 -4.53653
LeftUpLeg  -62.1898 2.46958 29.5667
LeftLeg  110.144 -0.157751 -0.383773
LeftFoot  -37.0936 -0.831668 -4.61966
LeftToes  3.79492e-011 -8.60219e-011 1.56273e-011
104
root  -4.48645 24.022 -135.957 170.633 -0.0391083 -158.529
RightUpLeg  -52.193 7.78593 13.579
RightLeg  98.29 -1.78131 11.4325
RightFoot  -37.1249 -0.114207 0.609984
RightToes  1.21801e-010 1.2921e-014 -6.02303e-014
Spine  59.3405 -19.4747 -5.31119
Spine1  44.8607 6.23601 -49.6398
HEad  -67.5754 51.2047 -25.6812
LeftShoulder1  3.39064 33.3654 21.7592
LeftArm  -57.9746 -53.3484 -11.7932
LeftForeArm  -7.79908 -24.3891 -5.60418
LeftHand  -7.80212 -26.9807 27.6433
RightShoulder  2.36796 36.0906 -2.70738
RightArm  -48.9191 83.7124 79.4405
RightForeArm  36.6635 33.5478 5.34709
RightHand  -0.3679 3.62959 -4.98746
LeftUpLeg  -60.18 3.17475 26.8402
LeftLeg  107.194 -0.39502 0.251948
LeftFoot  -36.1845 -0.760498 -4.44565
LeftToes  3.79492e-011 -8.60219e-011 1.56273e-011
105
root  -4.42475 24.8058 -135.937 171.955 0.17366 -160.662
RightUpLeg  -52.095 9.14144 11.6016
RightLeg  95.8276 -1.19129 10.8143
RightFoot  -35.847 -0.0127949 1.06824
RightToes  1.21801e-010 1.2921e-014 -6.02303e-014
Spine  58.3225 -17.4534 -4.93153
Spine1  43.347 5.34267 -45.2476
HEad  -64.2396 48.629 -27.1048
LeftShoulder1  2.20528 27.6245 19.4587
LeftArm  -56.8178 -53.1683 -11.9617
LeftForeArm  -6.25489 -23.8556 -5.40945
LeftHand  -10.4031 -30.0551 33.206
RightShoulder  3.3349 34.5187 0.448458
RightArm  -54.9995 80.3177 69.7509
RightForeArm  35.9322 32.1304 5.04544
RightHand  -0.383435 3.53182 -5.23751
LeftUpLeg  -59.0639 4.11722 24.2302
LeftLeg  103.944 -0.531079 0.805224
LeftFoot  -34.9602 -0.72317 -4.46814
LeftToes  3.79492e-011 -8.60219e-011 1.56273e-011
106
root  -4.36395 25.6542 -135.931 174.615 0.184647 -163.137
RightUpLeg  -53.393 10.306 8.74419
RightLeg  93.0203 -0.659725 10.838
RightFoot  -34.4158 0.0772601 1.52834
RightToes  1.21801e-010 1.2921e-014 -6.02303e-014
Spine  56.1453 -15.4868 -4.6629
Spine1  41.5259 4.25134 -40.4872
HEad  -60.1677 46.378 -28.2655
LeftShoulder1  1.14054 21.5438 16.4121
LeftArm  -55.5823 -52.9651 -11.7444
LeftForeArm  -5.74464 -23.4665 -5.29177
LeftHand  -11.0761 -30.3155 34.9625
RightShoulder  3.94239 32.946 2.7697
RightArm  -58.5185 76.9392 62.8471
RightForeArm  35.2491 30.5335 4.70926
RightHand  -0.424112 3.82062 -5.60352
LeftUpLeg  -59.3028 5.05959 21.0824
LeftLeg  100.207 -0.630246 1.54607
LeftFoot  -33.3489 -0.696745 -4.61682
LeftToes  3.79492e-011 -8.60219e-011 1.56273e-011
107
root  -4.32532 26.5749 -135.96 178.318 0.196152 -165.354
RightUpLeg  -55.6053 11.1288 6.00943
RightLeg  89.7874 -0.0333254 10.3803
RightFoot  -32.56 0.130469 1.88024
RightToes  1.21801e-010 1.2921e-014 -6.02303e-014
Spine  52.9719 -13.7638 -3.67972
Spine1  39.2502 3.34833 -35.4979
HEad  -54.6881 43.7625 -28.6818
LeftShoulder1  0.335782 14.4922 12.7957
LeftArm  -53.5425 -52.3842 -11.3494
LeftForeArm  -5.8454 -23.0801 -5.19591
LeftHand  -9.64548 -28.3492 32.4409
RightShoulder  4.42045 31.2203 4.94756
RightArm  -60.8741 73.2276 56.6296
RightForeArm  34.8521 28.5914 4.29243
RightHand  -0.475713 4.07179 -6.10199
LeftUpLeg  -60.5338 5.96355 18.0689
LeftLeg  96.0732 -0.637602 2.44045
LeftFoot  -31.4421 -0.644529 -4.70407
LeftToes  3.79492e-011 -8.60219e-011 1.56273e-011
108
root  -4.29032 27.5349 -136.021 -176.806 0.108002 -167.654
RightUpLeg  -58.9491 11.5154 2.85274
RightLeg  86.2095 0.596252 9.86268
RightFoot  -30.4449 0.172965 2.25809
RightToes  1.21801e-010 1.2921e-014 -6.02303e-014
Spine  49.1733 -11.7938 -1.96488
Spine1  35.6443 2.7559 -29.9161
HEad  -46.7857 40.7483 -27.7463
LeftShoulder1  -0.00772827 5.29234 8.95079
LeftArm  -50.5845 -51.1056 -11.9233
LeftForeArm  -5.94344 -22.8899 -5.15467
LeftHand  -6.47645 -23.9232 25.5012
RightShoulder  4.96886 28.4105 8.18024
RightArm  -60.8662 68.7681 51.359
RightForeArm  34.0033 26.7099 3.92689
RightHand  -0.505628 4.47418 -6.22813
LeftUpLeg  -62.9334 6.60513 14.8718
LeftLeg  91.4787 -0.501996 3.50919
LeftFoot  -29.2429 -0.627871 -5.10125
LeftToes  3.79492e-011 -8.60219e-011 1.56273e-011
109
root  -4.24023 28.5336 -136.092 -171.441 -0.0726318 -169.856
RightUpLeg  -62.4991 11.1144 -0.26368
RightLeg  82.1297 1.31114 9.9669
RightFoot  -28.2794 0.17038 2.43394
RightToes  1.21801e-010 1.2921e-014 -6.02303e-014
Spine  45.8707 -9.49397 3.73034
Spine1  27.4178 4.49264 -25.4333
HEad  -31.3821 33.7866 -21.0636
LeftShoulder1  0.619913 -12.7203 4.96266
LeftArm  -43.0886 -46.7402 -15.1869
LeftForeArm  -5.66826 -22.3009 -5.01875
LeftHand  -3.67501 -18.7511 17.9009
RightShoulder  5.88265 21.2031 17.4578
RightArm  -55.4486 61.8694 43.5492
RightForeArm  30.5919 23.2181 3.24046
RightHand  -0.601646 4.83321 -7.11645
LeftUpLeg  -65.7042 6.81561 11.7819
LeftLeg  86.4065 -0.166285 4.36581
LeftFoot  -26.7763 -0.516729 -4.99807
LeftToes  3.79492e-011 -8.60219e-011 1.56273e-011
110
root  -4.1948 29.5479 -136.176 -165.586 -0.161972 -172.133
RightUpLeg  -66.3093 10.1588 -3.39595
RightLeg  77.656 2.11493 10.0138
RightFoot  -25.8259 0.141126 2.48888
RightToes  1.21801e-010 1.2921e-014 -6.02303e-014
Spine  39.9788 -6.93195 2.7479
Spine1  27.9319 4.41812 -19.9241
HEad  -29.6617 30.2003 -23.0587
LeftShoulder1  1.31113 -14.2909 0.875004
LeftArm  -43.1744 -49.1188 -15.5966
LeftForeArm  -6.13309 -22.5449 -5.10362
LeftHand  -1.46588 -12.1932 10.0543
RightShoulder  4.83628 19.0465 14.9099
RightArm  -56.1434 60.9127 40.7877
RightForeArm  29.4119 22.8037 3.08696
RightHand  -0.610838 4.55422 -7.40645
LeftUpLeg  -68.6975 6.46632 8.80322
LeftLeg  80.806 0.392179 5.39107
LeftFoot  -24.1442 -0.423159 -5.06083
LeftToes  3.79492e-011 -8.60219e-011 1.56273e-011
111
root  -4.13752 30.5468 -136.27 -159.822 -0.335648 -174.295
RightUpLeg  -69.6823 8.74214 -6.09334
RightLeg  72.9084 2.94349 9.84237
RightFoot  -23.3774 0.119785 2.63892
RightToes  1.21801e-010 1.2921e-014 -6.02303e-014
Spine  34.0992 -4.60129 1.89945
Spine1  27.7121 4.43219 -15.0429
HEad  -26.8162 27.234 -24.6103
LeftShoulder1  2.08086 -16.3632 -2.66852
LeftArm  -41.9564 -50.616 -17.4854
LeftForeArm  -5.88228 -23.0421 -5.21017
LeftHand  -0.390278 -6.81223 4.05897
RightShoulder  4.00884 16.4677 13.4359
RightArm  -54.6213 59.5555 38.238
RightForeArm  26.5296 22.0007 2.76976
RightHand  -0.629286 4.54196 -7.62955
LeftUpLeg  -71.4966 5.66696 6.19513
LeftLeg  74.9365 1.17361 6.30784
LeftFoot  -21.2493 -0.312863 -5.07678
LeftToes  3.79492e-011 -8.60219e-011 1.56273e-011
112
root  -4.06993 31.547 -136.342 -154.516 -0.471252 -176.563
RightUpLeg  -72.4422 7.22252 -8.56133
RightLeg  67.8848 3.39843 8.50552
RightFoot  -20.3685 0.000103399 1.74837
RightToes  1.21801e-010 1.2921e-014 -6.02303e-014
Spine  28.5976 -3.12218 0.135571
Spine1  26.6355 3.90316 -11.8339
HEad  -24.4238 26.4151 -25.2598
LeftShoulder1  2.51405 -16.781 -4.85306
LeftArm  -38.6089 -50.9576 -20.2194
LeftForeArm  -6.78809 -23.6554 -5.3912
LeftHand  0.0239228 -2.83929 -0.120339
RightShoulder  3.48419 14.5132 12.6507
RightArm  -51.3659 58.0465 39.0141
RightForeArm  24.7173 21.8772 2.87612
RightHand  -0.646846 4.9926 -7.51939
LeftUpLeg  -73.4988 4.41409 3.87435
LeftLeg  68.5453 2.16714 6.96581
LeftFoot  -18.2212 -0.193871 -5.03908
LeftToes  3.79492e-011 -8.60219e-011 1.56273e-011
